<svg version="1" xmlns="http://www.w3.org/2000/svg" width="1278.667" height="1278.667" viewBox="0 0 959.000000 959.000000"><path d="M191 .7c-9.4 1-26 4.7-35.2 7.9-45.9 15.9-81.4 51.9-96.8 98.3C25.9 206.5 100.8 310 206 310c18.3 0 29.5 4.5 40.4 16.1 17.7 18.7 20.5 45.2 6.9 67.6-8.8 14.6-14.6 29.1-19 47.3-3.7 15.6-4.3 41.8-1.5 58.6 3.9 22.4 11.8 42.6 24.3 61.4 3.4 5.2 7.4 12.4 8.7 16 11 29.7-8.3 65.5-38.4 70.9-3.2.6-11.1 1.5-17.4 2.1-60.3 5.3-112.6 46.8-131.9 104.5-6 17.9-7.5 28-7.5 49.5 0 16.3.4 21.2 2.2 29.6 8.9 41.2 32.4 76.6 65.7 98.8 58.8 39.2 134.2 34.5 188.3-11.7 36.1-30.9 56.8-81.8 52.3-128.9-2.7-28.4-10.2-49.9-26.1-74.3-8.6-13.2-11.4-21.4-11.4-33 .1-14.3 5.6-27.6 15.9-38.1 11.1-11.2 24.3-16.4 41.5-16.4 19.6 0 34.9 7.5 45.5 22.4 7 9.9 9.7 17.3 10.3 28.7.6 11.7-.8 16.9-8.4 32.5-11.8 24.3-15.9 42.7-15.8 70.9 0 21.5 1.6 31.2 8 49.6 31.4 90.5 138 131.1 221.4 84.4 42.7-23.9 71.2-65.7 78.1-114.4 1.7-12.1.6-42.1-2-53.2-6.1-26.5-18.2-50.3-35.6-70.2-30.6-35-78.3-54.8-125.3-52-12 .7-19.5-.7-29.1-5.2-17.3-8.2-30.1-28.9-30.1-48.6 0-15.2 6.7-30.7 18.4-42.5 11.1-11.1 22.9-15.8 39.5-15.6 10.8.1 19.7 2.8 28 8.3 6.9 4.6 11.1 9.5 21.2 25.2C650.7 592.7 699.5 619 751 619c27.9 0 49.5-5.3 73.9-18.1 13.2-6.9 23.9-14.8 35.7-26.4 21.3-21 35.1-45.4 41.9-73.7 10.2-43.3 2.4-86.2-22.6-123.8-8.4-12.7-28.2-32.5-40.9-40.9-27.6-18.4-54.7-26.6-87.5-26.6-23.6.1-39.3 3.2-60.5 12.3-32.4 13.8-60.1 39.1-75.4 68.8-7.4 14.3-17.7 24.1-30.3 28.6-7.2 2.7-23.2 3.6-31.2 1.8-18.7-4.1-34.9-19.6-41.7-39.7-6.5-19.3-1-41.5 13.8-56.3 10.1-10.1 23.1-15 39.8-15 74.6 0 137.8-52.4 152.7-126.5 2.7-13.9 2.5-44.5-.6-58.5-10.5-48.7-39.5-86.7-83-108.4C584.6-8.8 523.3-3.8 476.3 29.3c-11.2 7.9-28.1 24.8-36 36-33.5 47.5-38 109.4-11.7 160.3 12.2 23.5 12.4 24 13.6 32.4 2.4 15.9-3.3 32-15.7 44.5C415 314.1 403 319 386 319c-17.2 0-30.5-5.5-41.4-17-17.2-18.3-20.2-41.9-8-63.5 7.5-13.3 13.1-25.6 16.3-35.2 12.9-39.5 9.8-81-8.9-118.4-22.8-45.5-66.9-76.7-117.8-83.4C215.9.1 199.8-.2 191 .7zm27.5 95.8c22.7 4.8 41.2 23.6 45.9 46.7.9 4.2 1.6 9.6 1.6 11.8 0 2.2-.7 7.6-1.6 11.8-4.8 23.9-23.3 42.2-47.2 46.8-9.3 1.8-14.9 1.7-23.7-.1-22.5-4.7-41.3-23.5-46-46-8.9-42.3 28.7-79.9 71-71zM585 98.6c17.6 5.5 31.9 19.8 38.2 38.3 3.3 9.7 3.3 26.6-.1 37-6.4 19.4-23.3 34.9-43.2 39.6-36.8 8.6-72.7-19.2-73.1-56.8-.2-16.6 4.8-29.9 15.5-41.4 16.7-17.9 39.4-24 62.7-16.7zm181.5 307.9c10.9 2.8 18.4 7.2 27 15.9 12.3 12.3 17.5 24.8 17.5 41.6 0 10.7-2.1 19.4-6.5 27.9-9.6 18.3-28.2 30.4-48.8 31.8-29.7 1.9-56.6-18.9-62.2-48.2-1.9-9.6-1.9-14.1 0-23 4.5-21.7 21-39.6 42-45.6 7.7-2.2 23.1-2.4 31-.4zM592.9 724.1C623 728.9 644 753 644 782.7c0 17.5-5.4 30.8-17.5 42.8-22 22-55.6 23.4-80.3 3.4-7.4-6-15.4-17.6-18.3-26.7-2.9-9.1-3.6-23.5-1.5-32.4 5.3-22.6 24.6-41.3 46.9-45.3 9.1-1.7 11.7-1.7 19.6-.4zM243 747c18.4 6.1 32.2 19.9 38.6 38.5 2.3 6.7 2.7 9.7 2.7 18.5.1 9.1-.3 11.6-2.9 19-8.3 23.7-27.9 38.8-52.6 40.6-29 2.1-56.3-18.5-62.3-47.1-2-9.6-1.9-17.8.5-26.9 2.9-11.3 7.3-19 16-27.7 8.5-8.5 17.9-13.9 29-16.4 8.7-2 22.5-1.3 31 1.5z"/></svg>